<svg width="43" height="52" viewBox="0 0 43 52" fill="none" xmlns="http://www.w3.org/2000/svg">
<path d="M3 7.6V44.4C3 45.62 3.48464 46.79 4.34731 47.6527C5.20998 48.5154 6.38 49 7.6 49H35.2C36.42 49 37.59 48.5154 38.4527 47.6527C39.3154 46.79 39.8 45.62 39.8 44.4V17.5866C39.7999 16.9738 39.6774 16.3672 39.4396 15.8024C39.2019 15.2376 38.8536 14.726 38.4154 14.2976L28.2034 4.311C27.344 3.47071 26.1899 3.00015 24.988 3H7.6C6.38 3 5.20998 3.48464 4.34731 4.34731C3.48464 5.20998 3 6.38 3 7.6V7.6Z" stroke="black" stroke-width="4.6" stroke-linecap="round" stroke-linejoin="round"/>
<path d="M26 3V12.2C26 13.42 26.4846 14.59 27.3473 15.4527C28.21 16.3154 29.38 16.8 30.6 16.8H39.8" stroke="black" stroke-width="4.6" stroke-linejoin="round"/>
<path d="M28.6458 25.0833H21.9167V18.3542C21.9167 18.1594 21.7573 18 21.5625 18H19.4375C19.2427 18 19.0833 18.1594 19.0833 18.3542V25.0833H12.3542C12.1594 25.0833 12 25.2427 12 25.4375V27.5625C12 27.7573 12.1594 27.9167 12.3542 27.9167H19.0833V34.6458C19.0833 34.8406 19.2427 35 19.4375 35H21.5625C21.7573 35 21.9167 34.8406 21.9167 34.6458V27.9167H28.6458C28.8406 27.9167 29 27.7573 29 27.5625V25.4375C29 25.2427 28.8406 25.0833 28.6458 25.0833Z" fill="black"/>
</svg>
