<svg width="45" height="49" viewBox="0 0 45 49" fill="none" xmlns="http://www.w3.org/2000/svg">
<path d="M13.965 40L22.5 48.535L31.035 40H40C42.7575 40 45 37.7575 45 35V5C45 2.2425 42.7575 0 40 0H5C2.2425 0 0 2.2425 0 5V35C0 37.7575 2.2425 40 5 40H13.965ZM5 5H40V35H28.965L22.5 41.465L16.035 35H5V5Z" fill="black"/>
<path d="M23.6969 13.0475L11.2544 25.47V29.9675H15.7544L28.1919 17.545L23.6969 13.0475ZM29.2444 7.4975L33.7444 11.9975L30.3194 15.4225L25.8194 10.925L29.2444 7.4975Z" fill="black"/>
</svg>
