<svg width="20" height="19" viewBox="0 0 20 19" fill="none" xmlns="http://www.w3.org/2000/svg">
<path d="M19 15.8V6.80002C19 6.32263 18.8104 5.8648 18.4728 5.52723C18.1352 5.18967 17.6774 5.00002 17.2 5.00002H11.1124C10.7781 5.00001 10.4503 4.90688 10.1659 4.73107C9.88155 4.55525 9.65175 4.30371 9.5023 4.00462L8.6977 2.39542C8.54818 2.09621 8.31824 1.84457 8.03368 1.66875C7.74912 1.49292 7.4212 1.39987 7.0867 1.40002H2.8C2.32261 1.40002 1.86477 1.58967 1.52721 1.92723C1.18964 2.2648 1 2.72263 1 3.20002V15.8C1 16.2774 1.18964 16.7353 1.52721 17.0728C1.86477 17.4104 2.32261 17.6 2.8 17.6H17.2C17.6774 17.6 18.1352 17.4104 18.4728 17.0728C18.8104 16.7353 19 16.2774 19 15.8Z" stroke="black" stroke-width="1.8" stroke-linecap="round" stroke-linejoin="round"/>
</svg>
