<svg width="62" height="46" viewBox="0 0 62 46" fill="none" xmlns="http://www.w3.org/2000/svg">
<path d="M57.8428 26.0796C57.8428 25.3218 57.2691 24.9429 56.1215 24.9429H20.7858C19.9197 24.9429 18.9941 25.1757 18.0089 25.6412C17.0237 26.1067 16.2497 26.675 15.6867 27.3463L6.13829 39.1357C5.74856 39.6553 5.55369 40.0884 5.55369 40.4348C5.55369 41.1926 6.12747 41.5715 7.27501 41.5715H42.6108C43.4769 41.5715 44.4079 41.3333 45.4039 40.857C46.3999 40.3807 47.1685 39.8069 47.7098 39.1357L57.2582 27.3463C57.648 26.8699 57.8428 26.4477 57.8428 26.0796ZM20.7858 20.7858H45.7287V15.5893C45.7287 14.7232 45.4255 13.9871 44.8193 13.3808C44.213 12.7746 43.4769 12.4715 42.6108 12.4715H23.9036C23.0375 12.4715 22.3014 12.1683 21.6951 11.5621C21.0889 10.9558 20.7858 10.2197 20.7858 9.35359V7.27501C20.7858 6.40894 20.4826 5.67278 19.8764 5.06653C19.2701 4.46028 18.534 4.15715 17.6679 4.15715H7.27501C6.40894 4.15715 5.67278 4.46028 5.06653 5.06653C4.46028 5.67278 4.15715 6.40894 4.15715 7.27501V34.9785L12.4715 24.748C13.4241 23.6005 14.6799 22.6532 16.2389 21.9062C17.7978 21.1592 19.3134 20.7858 20.7858 20.7858ZM62 26.0796C62 27.422 61.502 28.7211 60.506 29.977L50.9251 41.7664C49.9941 42.9139 48.7383 43.8612 47.1577 44.6082C45.5771 45.3552 44.0615 45.7287 42.6108 45.7287H7.27501C5.28305 45.7287 3.57255 45.0141 2.14353 43.5851C0.71451 42.1561 0 40.4456 0 38.4536V7.27501C0 5.28305 0.71451 3.57255 2.14353 2.14353C3.57255 0.71451 5.28305 0 7.27501 0H17.6679C19.6599 0 21.3704 0.71451 22.7994 2.14353C24.2284 3.57255 24.9429 5.28305 24.9429 7.27501V8.3143H42.6108C44.6028 8.3143 46.3133 9.02881 47.7423 10.4578C49.1713 11.8869 49.8858 13.5973 49.8858 15.5893V20.7858H56.1215C57.2907 20.7858 58.3625 21.051 59.3368 21.5815C60.3112 22.1119 61.0365 22.8752 61.5128 23.8711C61.8376 24.564 62 25.3002 62 26.0796Z" fill="black"/>
</svg>
