<svg width="26" height="23" viewBox="0 0 26 23" fill="none" xmlns="http://www.w3.org/2000/svg">
<path d="M24 19.6V8.6C24 8.01652 23.7682 7.45695 23.3556 7.04437C22.9431 6.63179 22.3835 6.4 21.8 6.4H14.3596C13.951 6.39999 13.5504 6.28616 13.2028 6.07127C12.8552 5.85639 12.5744 5.54895 12.3917 5.1834L11.4083 3.2166C11.2256 2.85089 10.9445 2.54333 10.5967 2.32844C10.2489 2.11354 9.84813 1.99981 9.4393 2H4.2C3.61652 2 3.05695 2.23179 2.64436 2.64437C2.23178 3.05695 2 3.61652 2 4.2V19.6C2 20.1835 2.23178 20.7431 2.64436 21.1556C3.05695 21.5682 3.61652 21.8 4.2 21.8H21.8C22.3835 21.8 22.9431 21.5682 23.3556 21.1556C23.7682 20.7431 24 20.1835 24 19.6Z" stroke="black" stroke-width="2.2" stroke-linecap="round" stroke-linejoin="round"/>
</svg>
