<svg width="16" height="16" viewBox="0 0 16 16" fill="none" xmlns="http://www.w3.org/2000/svg">
<path d="M11.2851 7.42854H4.71366C4.63509 7.42854 4.5708 7.49283 4.5708 7.5714V8.42854C4.5708 8.50711 4.63509 8.5714 4.71366 8.5714H11.2851C11.3637 8.5714 11.4279 8.50711 11.4279 8.42854V7.5714C11.4279 7.49283 11.3637 7.42854 11.2851 7.42854Z" fill="black"/>
<path d="M8 0C3.58214 0 0 3.58214 0 8C0 12.4179 3.58214 16 8 16C12.4179 16 16 12.4179 16 8C16 3.58214 12.4179 0 8 0ZM8 14.6429C4.33214 14.6429 1.35714 11.6679 1.35714 8C1.35714 4.33214 4.33214 1.35714 8 1.35714C11.6679 1.35714 14.6429 4.33214 14.6429 8C14.6429 11.6679 11.6679 14.6429 8 14.6429Z" fill="black"/>
</svg>
