<svg width="12" height="12" viewBox="0 0 12 12" fill="none" xmlns="http://www.w3.org/2000/svg">
<path d="M8.19643 5.78571H6.5V4.08929C6.5 4.04018 6.45982 4 6.41071 4H5.875C5.82589 4 5.78571 4.04018 5.78571 4.08929V5.78571H4.08929C4.04018 5.78571 4 5.82589 4 5.875V6.41071C4 6.45982 4.04018 6.5 4.08929 6.5H5.78571V8.19643C5.78571 8.24554 5.82589 8.28571 5.875 8.28571H6.41071C6.45982 8.28571 6.5 8.24554 6.5 8.19643V6.5H8.19643C8.24554 6.5 8.28571 6.45982 8.28571 6.41071V5.875C8.28571 5.82589 8.24554 5.78571 8.19643 5.78571Z" fill="black"/>
<path d="M6 0C2.68661 0 0 2.68661 0 6C0 9.31339 2.68661 12 6 12C9.31339 12 12 9.31339 12 6C12 2.68661 9.31339 0 6 0ZM6 10.9821C3.24911 10.9821 1.01786 8.75089 1.01786 6C1.01786 3.24911 3.24911 1.01786 6 1.01786C8.75089 1.01786 10.9821 3.24911 10.9821 6C10.9821 8.75089 8.75089 10.9821 6 10.9821Z" fill="black"/>
</svg>
