<svg width="8" height="9" viewBox="0 0 8 9" fill="none" xmlns="http://www.w3.org/2000/svg">
<path d="M5.46412 4.25717H4.33317V3.12622C4.33317 3.09348 4.30639 3.0667 4.27365 3.0667H3.9165C3.88377 3.0667 3.85698 3.09348 3.85698 3.12622V4.25717H2.72603C2.69329 4.25717 2.6665 4.28396 2.6665 4.3167V4.67384C2.6665 4.70658 2.69329 4.73336 2.72603 4.73336H3.85698V5.86432C3.85698 5.89705 3.88377 5.92384 3.9165 5.92384H4.27365C4.30639 5.92384 4.33317 5.89705 4.33317 5.86432V4.73336H5.46412C5.49686 4.73336 5.52365 4.70658 5.52365 4.67384V4.3167C5.52365 4.28396 5.49686 4.25717 5.46412 4.25717Z" fill="black"/>
<path d="M4 0.400024C1.79107 0.400024 0 2.1911 0 4.40002C0 6.60895 1.79107 8.40002 4 8.40002C6.20893 8.40002 8 6.60895 8 4.40002C8 2.1911 6.20893 0.400024 4 0.400024ZM4 7.72145C2.16607 7.72145 0.678571 6.23395 0.678571 4.40002C0.678571 2.5661 2.16607 1.0786 4 1.0786C5.83393 1.0786 7.32143 2.5661 7.32143 4.40002C7.32143 6.23395 5.83393 7.72145 4 7.72145Z" fill="black"/>
</svg>
