<svg width="46" height="46" viewBox="0 0 46 46" fill="none" xmlns="http://www.w3.org/2000/svg">
<path d="M45.4441 10.1392L35.8608 0.555865C35.6817 0.378226 35.4693 0.237686 35.2358 0.142304C35.0023 0.0469216 34.7522 -0.00142634 34.5 3.20357e-05H3.83333C2.81667 3.20357e-05 1.84165 0.403899 1.12276 1.12279C0.403867 1.84168 0 2.8167 0 3.83336V42.1667C0 43.1833 0.403867 44.1584 1.12276 44.8772C1.84165 45.5961 2.81667 46 3.83333 46H42.1666C43.1833 46 44.1583 45.5961 44.8772 44.8772C45.5961 44.1584 46 43.1833 46 42.1667V11.5C46.0014 11.2478 45.9531 10.9977 45.8577 10.7642C45.7623 10.5307 45.6218 10.3183 45.4441 10.1392ZM15.3333 3.83336H30.6666V11.5H15.3333V3.83336ZM30.6666 42.1667H15.3333V26.8333H30.6666V42.1667ZM34.5 42.1667V26.8333C34.5 25.8167 34.0961 24.8417 33.3772 24.1228C32.6583 23.4039 31.6833 23 30.6666 23H15.3333C14.3167 23 13.3416 23.4039 12.6227 24.1228C11.9039 24.8417 11.5 25.8167 11.5 26.8333V42.1667H3.83333V3.83336H11.5V11.5C11.5 12.5167 11.9039 13.4917 12.6227 14.2106C13.3416 14.9295 14.3167 15.3334 15.3333 15.3334H30.6666C31.6833 15.3334 32.6583 14.9295 33.3772 14.2106C34.0961 13.4917 34.5 12.5167 34.5 11.5V4.6192L42.1666 12.2859V42.1667H34.5Z" fill="black"/>
</svg>
